<?xml version="1.0" encoding="utf-8"?>
<!-- Generator: Adobe Illustrator 19.0.0, SVG Export Plug-In . SVG Version: 6.00 Build 0)  -->
<svg version="1.1" id="Calque_1" xmlns="http://www.w3.org/2000/svg" xmlns:xlink="http://www.w3.org/1999/xlink" x="0px" y="0px"
	 viewBox="-158 204 322.4 74" style="enable-background:new -158 204 322.4 74;" xml:space="preserve">
<style type="text/css">
	.st0{fill:#FF9C7B;}
</style>
<g>
	<path class="st0" d="M-99.1,222.5c-2.9,0-6.9-0.4-10.5-1l-13.6,33.6c-5.2,13.3-13.9,16.3-20,16.3c-9.3,0-14.8-6.9-14.8-14.3
		c0-8.1,6.7-14.7,15.1-14.2v6.1c-6.2-0.5-9,4.3-9,8.3c0,3.8,2.8,8.1,8.7,8.1c7.1,0,11.5-6.1,14.8-15.3l12-29.9
		c-8.8-1.8-17.7-4.2-23-4.2c-6.9,0-8.8,3.8-8.8,6.8c0,3.5,2.6,5.6,5.6,5.6c3.2,0,5.4-2.3,5.4-2.3l3.1,4.6c0,0-2.9,3.4-8.4,3.4
		c-6.5,0.1-11.7-4.8-11.7-11.4c0-6,4.3-12.7,15-12.7c10.5,0,28.3,6.4,39.8,6.4c6,0,8.3-2,8.3-2l3.8,2.1
		C-87.3,216.5-88,222.5-99.1,222.5z M-120.5,266c3.2-3.1,9.6-13,16.7-28.5c-1.3-1.3-2.2-2.8-2.2-4.5c0-3.3,3.4-6.5,6.2-7.4l3.8,2.7
		l-2.7,6.2c2.8,2.8,8.3,5.8,8.3,10.2c0,0.8-0.2,2.1-0.8,3.6l-3.2,7.8c-3.4,8.2-1.3,9-0.3,9c2.7,0,6.7-5.7,12.2-15.1
		c1,0,2.7,1.1,3,2.2c-5.4,9.3-10.6,17.6-17.3,17.6c-5.5,0-8.8-4.4-3.9-16.5l2.7-6.3c0.6-1.4,0.6-2.1,0.6-2.2c0-1.4-0.8-2.2-3.6-4.6
		c-6.4,13.9-13.3,25.4-17,28.6C-118.9,268.8-120.7,267-120.5,266z"/>
	<path class="st0" d="M-43.1,252.2c-5.4,9.4-11.7,17.6-18.9,17.6c-6.4,0-6.4-5.6-6.4-5.6s-4.2,5.6-9.9,5.6c-4.5,0-6.7-3.4-6.7-7.8
		c0-7.5,6.6-30.3,18.5-30.3c5.9,0,6.9,5.7,6.9,5.7l2-4.8h7.4l-9.5,23.6c-2.9,7.1-2,9-0.1,9c3.5,0,9-6.9,13.8-15.1
		C-45.1,250-43.5,251.1-43.1,252.2z M-67.6,257.2l5.8-14.4c0,0,0.1-5-3.4-5c-6.6,0-12.7,17.4-12.7,23c0,2,0.8,2.9,2.3,2.9
		C-71.5,263.7-67.6,257.2-67.6,257.2z"/>
	<path class="st0" d="M-6.8,252.2c-5.4,9.4-11.7,17.6-18.9,17.6c-6.4,0-6.4-5.6-6.4-5.6s-4.2,5.6-9.9,5.6c-4.5,0-6.7-3.4-6.7-7.8
		c0-7.5,6.6-30.3,18.5-30.3c5.9,0,6.9,5.7,6.9,5.7l7.6-18.6h7.4l-15.1,37.5c-3.1,7.6-1.8,9-0.2,9c3.6,0,9.1-6.9,13.9-15.1
		C-8.8,250-7.1,251.1-6.8,252.2z M-31.3,257.2l5.8-14.4c0,0,0.1-5-3.4-5c-6.6,0-12.7,17.4-12.7,23c0,2,0.8,2.9,2.3,2.9
		C-35.2,263.7-31.3,257.2-31.3,257.2z"/>
	<path class="st0" d="M3.5,225.6c0,1-0.1,2.1-0.3,3.2c-0.2,1.2-0.5,2.3-0.9,3.4c-0.4,1.1-1,2.2-1.7,3.2s-1.5,1.9-2.5,2.6l-3.7-2.6
		c0.6-0.7,1.1-1.4,1.4-2.1c0.3-0.7,0.6-1.3,0.8-2c-0.7-0.1-1.3-0.3-1.9-0.7c-0.6-0.3-1.1-0.8-1.5-1.3s-0.8-1.1-1-1.8
		c-0.3-0.7-0.4-1.4-0.4-2.1c0-0.8,0.2-1.5,0.5-2.2s0.7-1.3,1.3-1.9c0.5-0.5,1.2-1,1.8-1.3c0.7-0.3,1.4-0.5,2.2-0.5s1.6,0.2,2.3,0.5
		s1.3,0.7,1.9,1.3c0.5,0.5,0.9,1.2,1.2,1.9C3.3,224,3.5,224.8,3.5,225.6z"/>
	<path class="st0" d="M20.7,268.8h-9.8v-49h34.3v9.8H20.7v9.8h14.7v9.8H20.7V268.8z"/>
	<path class="st0" d="M80.4,250.2c0,2.7-0.5,5.3-1.5,7.6c-1,2.4-2.3,4.4-4,6.1c-1.7,1.7-3.7,3.1-5.9,4.1c-2.3,1-4.7,1.5-7.3,1.5
		s-5-0.5-7.3-1.5s-4.2-2.3-5.9-4.1c-1.7-1.7-3-3.8-4-6.1c-1-2.4-1.5-4.9-1.5-7.6c0-2.8,0.5-5.4,1.5-7.7c1-2.4,2.3-4.4,4-6.1
		s3.7-3.1,5.9-4.1c2.3-1,4.7-1.5,7.3-1.5s5,0.5,7.3,1.4c2.3,0.9,4.2,2.2,5.9,3.9s3,3.7,4,6.1C79.9,244.6,80.4,247.3,80.4,250.2z
		 M71,250.2c0-1.5-0.2-2.9-0.7-4.1c-0.5-1.2-1.2-2.3-2-3.1c-0.8-0.9-1.8-1.5-3-2c-1.1-0.5-2.3-0.7-3.6-0.7s-2.5,0.2-3.6,0.7
		s-2.1,1.1-2.9,2c-0.8,0.9-1.5,1.9-2,3.1s-0.7,2.6-0.7,4.1c0,1.4,0.2,2.7,0.7,3.9c0.5,1.2,1.1,2.3,2,3.1c0.8,0.9,1.8,1.6,2.9,2.1
		s2.3,0.8,3.6,0.8s2.5-0.2,3.6-0.7s2.1-1.2,3-2c0.8-0.9,1.5-1.9,2-3.1C70.7,253,71,251.7,71,250.2z"/>
	<path class="st0" d="M120.9,250.2c0,2.7-0.5,5.3-1.5,7.6c-1,2.4-2.3,4.4-4,6.1c-1.7,1.7-3.7,3.1-5.9,4.1s-4.7,1.5-7.3,1.5
		c-2.6,0-5-0.5-7.3-1.5s-4.2-2.3-5.9-4.1c-1.7-1.7-3-3.8-4-6.1c-1-2.4-1.5-4.9-1.5-7.6c0-2.8,0.5-5.4,1.5-7.7c1-2.4,2.3-4.4,4-6.1
		s3.7-3.1,5.9-4.1c2.3-1,4.7-1.5,7.3-1.5s5,0.5,7.3,1.4c2.3,0.9,4.2,2.2,5.9,3.9c1.7,1.7,3,3.7,4,6.1
		C120.4,244.6,120.9,247.3,120.9,250.2z M111.5,250.2c0-1.5-0.2-2.9-0.7-4.1c-0.5-1.2-1.2-2.3-2-3.1c-0.8-0.9-1.8-1.5-3-2
		c-1.1-0.5-2.3-0.7-3.6-0.7c-1.3,0-2.5,0.2-3.6,0.7s-2.1,1.1-2.9,2c-0.8,0.9-1.5,1.9-2,3.1s-0.7,2.6-0.7,4.1c0,1.4,0.2,2.7,0.7,3.9
		c0.5,1.2,1.1,2.3,2,3.1c0.8,0.9,1.8,1.6,2.9,2.1c1.1,0.5,2.3,0.8,3.6,0.8c1.3,0,2.5-0.2,3.6-0.7s2.1-1.2,3-2c0.8-0.9,1.5-1.9,2-3.1
		C111.3,253,111.5,251.7,111.5,250.2z"/>
	<path class="st0" d="M161.4,268.8h-2.3l-3.6-5c-0.9,0.8-1.8,1.5-2.8,2.2s-2,1.3-3.1,1.8s-2.2,0.9-3.4,1.2c-1.2,0.3-2.3,0.4-3.5,0.4
		c-2.6,0-5-0.5-7.3-1.5s-4.2-2.3-5.9-4c-1.7-1.7-3-3.8-4-6.1c-1-2.4-1.5-4.9-1.5-7.7c0-2.8,0.5-5.3,1.5-7.7c1-2.4,2.3-4.4,4-6.2
		c1.7-1.7,3.7-3.1,5.9-4.1c2.3-1,4.7-1.5,7.3-1.5c0.8,0,1.7,0.1,2.5,0.2c0.9,0.1,1.7,0.4,2.6,0.7s1.6,0.7,2.3,1.2
		c0.7,0.5,1.3,1.1,1.8,1.8v-16.8h9.4v51.1H161.4z M152,250.2c0-1.3-0.2-2.5-0.7-3.7s-1.2-2.3-2-3.2c-0.8-0.9-1.8-1.7-3-2.2
		c-1.1-0.6-2.3-0.8-3.6-0.8c-1.3,0-2.5,0.2-3.6,0.7s-2.1,1.1-2.9,2s-1.5,1.9-2,3.1c-0.5,1.2-0.7,2.6-0.7,4.2c0,1.3,0.2,2.6,0.7,3.8
		c0.5,1.2,1.1,2.3,2,3.2c0.8,0.9,1.8,1.6,2.9,2.2c1.1,0.5,2.3,0.8,3.6,0.8c1.3,0,2.5-0.3,3.6-0.8c1.1-0.6,2.1-1.3,3-2.2
		c0.8-0.9,1.5-2,2-3.2C151.8,252.7,152,251.5,152,250.2z"/>
</g>
</svg>
