<?xml version="1.0" encoding="utf-8"?>
<!-- Generator: Adobe Illustrator 19.0.0, SVG Export Plug-In . SVG Version: 6.00 Build 0)  -->
<svg version="1.1" id="Layer_1" xmlns="http://www.w3.org/2000/svg" xmlns:xlink="http://www.w3.org/1999/xlink" x="0px" y="0px"
	 viewBox="-43 -35 551 551" style="enable-background:new -43 -35 551 551;" xml:space="preserve">
<g id="XMLID_13_">
	<path id="XMLID_17_" d="M343.9-35H121.2C30.6-35-43,38.6-43,129.1v222.7C-43,442.4,30.6,516,121.2,516h222.7
		c90.5,0,164.2-73.6,164.2-164.2V129.1C508,38.6,434.4-35,343.9-35z M452.6,351.8c0,60-48.7,108.7-108.7,108.7H121.2
		c-60,0-108.7-48.7-108.7-108.7V129.1c0-60,48.7-108.7,108.7-108.7h222.7c60,0,108.7,48.7,108.7,108.7L452.6,351.8L452.6,351.8z"/>
	<path id="XMLID_81_" d="M232.5,98C153.9,98,90,161.9,90,240.5S153.9,383,232.5,383S375,319.1,375,240.5S311.1,98,232.5,98z
		 M232.5,327.6c-48.1,0-87.1-39-87.1-87.1s39-87.1,87.1-87.1c48.1,0,87.1,39,87.1,87.1C319.6,288.6,280.6,327.6,232.5,327.6z"/>
	<circle id="XMLID_83_" cx="375.3" cy="99" r="34.1"/>
</g>
</svg>
